<svg width="36" height="36" viewBox="0 0 36 36" fill="none" xmlns="http://www.w3.org/2000/svg">
<rect width="36" height="36" fill="#252424"/>
<g id="Container">
<g id="Link">
<g id="Container_2">
<g id="Icon">
<path id="Vector" d="M24.4298 8.54591H4.125V30.4544H9.77618V23.3264H20.6056L25.5466 30.4527H31.8745L26.4262 23.2936C28.1182 23.0307 29.3365 22.4065 30.081 21.4208C30.8255 20.4357 31.1978 18.8591 31.1978 16.7572V15.1143C31.1978 13.8665 31.0628 12.8806 30.8255 12.1255C30.5883 11.3703 30.1825 10.7133 29.6073 10.1217C29.0058 9.56745 28.2895 9.15261 27.5095 8.90673C26.697 8.67764 25.6816 8.54591 24.4298 8.54591ZM23.5159 18.4991H9.777V13.3748H23.5167C24.2948 13.3748 24.8365 13.5057 25.1073 13.7356C25.3781 13.9655 25.5475 14.3926 25.5475 15.0169V16.8562C25.5475 17.5132 25.3781 17.9403 25.1073 18.1694C24.8373 18.3993 24.2956 18.4983 23.5167 18.4983M30.7364 8.17119C31.2337 8.17119 31.7107 7.97361 32.0624 7.62193C32.4141 7.27025 32.6116 6.79327 32.6116 6.29591C32.6116 5.79856 32.4141 5.32158 32.0624 4.96989C31.7107 4.61821 31.2337 4.42064 30.7364 4.42064C30.239 4.42064 29.762 4.61821 29.4103 4.96989C29.0587 5.32158 28.8611 5.79856 28.8611 6.29591C28.8611 6.79327 29.0587 7.27025 29.4103 7.62193C29.762 7.97361 30.239 8.17119 30.7364 8.17119Z" fill="white"/>
</g>
</g>
</g>
</g>
</svg>
