<svg width="36" height="36" viewBox="0 0 36 36" fill="none" xmlns="http://www.w3.org/2000/svg">
<rect width="36" height="36" fill="#252424"/>
<g id="Container">
<g id="Link">
<g id="Container_2">
<g id="Icon">
<g id="Mask group">
<mask id="mask0_0_1" style="mask-type:luminance" maskUnits="userSpaceOnUse" x="4" y="4" width="29" height="29">
<g id="Group">
<path id="Vector" d="M32.5236 4.09091H4.0918V32.5227H32.5236V4.09091Z" fill="white"/>
</g>
</mask>
<g mask="url(#mask0_0_1)">
<g id="Group_2">
<path id="Vector_2" d="M18.3633 4.09091C23.9843 4.09091 27.2848 4.65955 29.6043 6.91364C31.9705 9.32728 32.5171 12.6033 32.5171 18.2242V18.3837C32.5171 24.0063 31.9705 27.3052 29.6043 29.6959C27.2832 31.9492 24.0063 32.5186 18.3617 32.5186H18.2472C12.605 32.5186 9.30443 31.9492 7.00534 29.6959C4.63834 27.2823 4.0918 24.0046 4.0918 18.3837V18.2242C4.0918 12.6033 4.63752 9.30355 7.00452 6.91282C9.32571 4.65955 12.6042 4.09091 18.2496 4.09091H18.3633ZM18.077 7.47491C18.0245 7.4755 17.9743 7.4962 17.9367 7.53275C17.8991 7.56929 17.877 7.61888 17.8749 7.67128C17.7276 11.5634 17.2334 13.9304 15.5758 15.5888C13.9198 17.2448 11.5577 17.7382 7.67216 17.8855C7.61962 17.8876 7.56991 17.9098 7.53335 17.9476C7.49679 17.9854 7.47618 18.0358 7.4758 18.0884V18.5416C7.4758 18.6496 7.56416 18.7396 7.67216 18.7445C11.5577 18.8918 13.9223 19.3876 15.5758 21.042C17.2293 22.6964 17.7243 25.056 17.8733 28.9342C17.8765 29.0422 17.9665 29.1305 18.0762 29.1305H18.5311C18.5836 29.1302 18.6341 29.1096 18.6718 29.073C18.7096 29.0364 18.7319 28.9867 18.734 28.9342C18.8829 25.056 19.3763 22.6964 21.0306 21.042C22.6866 19.386 25.0503 18.8918 28.9351 18.7445C28.9876 18.7424 29.0373 18.7202 29.0739 18.6824C29.1104 18.6446 29.1311 18.5942 29.1314 18.5416V18.0884H29.1331C29.1327 18.0358 29.1121 17.9854 29.0755 17.9476C29.039 17.9098 28.9892 17.8876 28.9367 17.8855C25.052 17.7382 22.6866 17.2432 21.0331 15.5888C19.3746 13.9312 18.8813 11.565 18.734 7.67128C18.7319 7.61874 18.7096 7.56903 18.6718 7.53246C18.6341 7.4959 18.5836 7.47529 18.5311 7.47491H18.077Z" fill="white"/>
</g>
</g>
</g>
</g>
</g>
</g>
</g>
</svg>
