<svg width="36" height="36" viewBox="0 0 36 36" fill="none" xmlns="http://www.w3.org/2000/svg">
<rect width="36" height="36" fill="#252424"/>
<g id="Container">
<g id="Link">
<g id="Container_2">
<g id="Icon">
<path id="Vector" d="M33.2698 9.49173C33.4899 8.63264 33.2698 8.00018 32.2127 8.00018H28.7133C27.8223 8.00018 27.4124 8.54346 27.1931 9.14809C27.1931 9.14809 25.4103 14.1742 22.892 17.4322C22.0779 18.3747 21.704 18.6766 21.258 18.6766C21.0388 18.6766 20.7 18.3739 20.7 17.5148V9.49173C20.7 8.46082 20.4505 8.00018 19.7141 8.00018H14.2127C13.6547 8.00018 13.3217 8.48127 13.3217 8.928C13.3217 9.90409 14.5817 10.1307 14.7126 12.8815V18.8485C14.7126 20.1551 14.5097 20.3956 14.0646 20.3956C12.8766 20.3956 9.98923 15.3491 8.27841 9.57436C7.93396 8.45346 7.59523 8.00018 6.6985 8.00018H3.19832C2.20014 8.00018 1.99805 8.54346 1.99805 9.14809C1.99805 10.2199 3.18687 15.5487 7.52896 22.5892C10.422 27.3944 14.4974 30.0003 18.2038 30.0003C20.4317 30.0003 20.705 29.4226 20.705 28.4253C20.705 23.8328 20.5029 23.4 21.6197 23.4C22.1368 23.4 23.027 23.7027 25.1068 26.019C27.4828 28.7697 27.8755 30.0003 29.2059 30.0003H32.7044C33.7026 30.0003 34.2074 29.4226 33.917 28.2813C33.251 25.8815 28.7542 20.9455 28.5521 20.6149C28.0359 19.8458 28.184 19.5022 28.5521 18.8149C28.5587 18.8075 32.8296 11.8497 33.269 9.49173" fill="white"/>
</g>
</g>
</g>
</g>
</svg>
