<svg preserveAspectRatio="none" width="100%" height="100%" overflow="visible" style="display: block;" viewBox="0 0 17 17" fill="none" xmlns="http://www.w3.org/2000/svg">
<g id="star">
<path id="Vector" d="M8.30269 1.47257C8.24324 1.50948 8.19529 1.56227 8.16425 1.62498L6.52871 4.93927C6.42083 5.15763 6.26151 5.34651 6.06446 5.48964C5.8674 5.63277 5.63851 5.72588 5.3975 5.76094L1.73896 6.29573C1.66933 6.30558 1.60387 6.33478 1.55003 6.38001C1.49619 6.42525 1.45614 6.48469 1.43443 6.55158C1.41273 6.61846 1.41024 6.6901 1.42726 6.75833C1.44429 6.82656 1.48013 6.88863 1.53071 6.93748L4.17704 9.51369C4.35172 9.6838 4.4824 9.89385 4.5578 10.1257C4.6332 10.3576 4.65106 10.6043 4.60983 10.8447L3.98579 14.4848C3.97365 14.554 3.98117 14.6252 4.00751 14.6904C4.03384 14.7555 4.07793 14.8119 4.13475 14.8533C4.19158 14.8946 4.25886 14.9191 4.32894 14.9241C4.39903 14.9291 4.46911 14.9143 4.53121 14.8814L7.80158 13.1616C8.01712 13.0484 8.25691 12.9893 8.50035 12.9893C8.74379 12.9893 8.98359 13.0484 9.19912 13.1616L12.4702 14.8814C12.5323 14.9145 12.6025 14.9295 12.6727 14.9246C12.7429 14.9197 12.8103 14.8952 12.8673 14.8538C12.9242 14.8125 12.9684 14.7559 12.9947 14.6907C13.0211 14.6254 13.0286 14.5541 13.0163 14.4848L12.3916 10.8439C12.3505 10.6037 12.3685 10.3572 12.4439 10.1254C12.5193 9.8937 12.6499 9.68376 12.8244 9.51369L15.4707 6.93677C15.5209 6.88787 15.5563 6.8259 15.5731 6.75788C15.5899 6.68985 15.5873 6.6185 15.5656 6.55187C15.544 6.48525 15.5041 6.42601 15.4505 6.38087C15.3969 6.33573 15.3318 6.30649 15.2625 6.29644L11.6032 5.76094C11.3625 5.72561 11.1339 5.63238 10.9371 5.48926C10.7403 5.34615 10.5812 5.15742 10.4734 4.93927L8.83717 1.62498C8.80612 1.56227 8.75817 1.50948 8.69872 1.47257C8.63927 1.43566 8.57068 1.4161 8.50071 1.4161C8.43073 1.4161 8.36215 1.43566 8.30269 1.47257Z" stroke="var(--stroke-0, white)" stroke-width="2" stroke-linecap="round"/>
</g>
</svg>
