<svg preserveAspectRatio="none" width="100%" height="100%" overflow="visible" style="display: block;" viewBox="0 0 17 17" fill="none" xmlns="http://www.w3.org/2000/svg">
<g id="wrench" clip-path="url(#clip0_0_18)">
<path id="Vector" d="M10.2098 4.95868C10.2098 4.77327 10.2825 4.59526 10.4123 4.46285L12.6131 2.26347C12.8404 2.03539 12.7682 1.65147 12.4579 1.56647C11.6796 1.35246 10.8563 1.36456 10.0846 1.60134C9.31285 1.83813 8.6245 2.28981 8.10009 2.90353C7.57569 3.51726 7.23692 4.26764 7.12343 5.06688C7.00993 5.86611 7.12641 6.68114 7.45922 7.4166L1.85631 13.0195C1.57451 13.3012 1.41617 13.6833 1.4161 14.0818C1.41603 14.4802 1.57425 14.8624 1.85595 15.1442C2.13765 15.426 2.51975 15.5843 2.9182 15.5844C3.31665 15.5844 3.6988 15.4262 3.9806 15.1445L9.58351 9.5416C10.319 9.87441 11.134 9.99089 11.9332 9.8774C12.7325 9.7639 13.4829 9.42513 14.0966 8.90073C14.7103 8.37632 15.162 7.68797 15.3988 6.91623C15.6356 6.14448 15.6477 5.32126 15.4336 4.54289C15.3486 4.23264 14.964 4.16039 14.7373 4.38847L12.5373 6.58785C12.4049 6.71763 12.2268 6.79033 12.0414 6.79033C11.856 6.79033 11.678 6.71763 11.5456 6.58785L10.4123 5.45451C10.2825 5.32211 10.2098 5.14409 10.2098 4.95868Z" stroke="var(--stroke-0, white)" stroke-width="2" stroke-linecap="round"/>
</g>
<defs>
<clipPath id="clip0_0_18">
<rect width="17" height="17" fill="white"/>
</clipPath>
</defs>
</svg>
