<svg preserveAspectRatio="none" width="100%" height="100%" overflow="visible" style="display: block;" viewBox="0 0 15 16" fill="none" xmlns="http://www.w3.org/2000/svg">
<g id="factory">
<path id="Vector" d="M7.5 10.6667H7.50625M10 10.6667H10.0063M5 10.6667H5.00625M1.875 12.6667C1.875 13.0203 2.0067 13.3594 2.24112 13.6095C2.47554 13.8595 2.79348 14 3.125 14H11.875C12.2065 14 12.5245 13.8595 12.7589 13.6095C12.9933 13.3594 13.125 13.0203 13.125 12.6667V5.66667C13.1251 5.60687 13.11 5.54815 13.0815 5.49668C13.053 5.4452 13.012 5.40286 12.9628 5.37409C12.9137 5.34532 12.8582 5.33119 12.8022 5.33316C12.7461 5.33514 12.6916 5.35316 12.6444 5.38533L9.85563 7.28133C9.80837 7.31351 9.75387 7.33152 9.69784 7.3335C9.64181 7.33548 9.58631 7.32134 9.53716 7.29258C9.48801 7.26381 9.44703 7.22147 9.41849 7.16999C9.38996 7.11851 9.37494 7.0598 9.375 7V5.66667C9.37506 5.60687 9.36004 5.54815 9.33151 5.49668C9.30297 5.4452 9.26199 5.40286 9.21284 5.37409C9.16369 5.34532 9.10819 5.33119 9.05216 5.33316C8.99613 5.33514 8.94163 5.35316 8.89437 5.38533L6.10625 7.28133C6.05898 7.31368 6.00442 7.33184 5.94829 7.33391C5.89217 7.33598 5.83656 7.32188 5.78731 7.29309C5.73806 7.2643 5.697 7.22189 5.66844 7.17031C5.63987 7.11874 5.62487 7.0599 5.625 7V3.33333C5.625 2.97971 5.4933 2.64057 5.25888 2.39052C5.02446 2.14048 4.70652 2 4.375 2H3.125C2.79348 2 2.47554 2.14048 2.24112 2.39052C2.0067 2.64057 1.875 2.97971 1.875 3.33333V12.6667Z" stroke="var(--stroke-0, white)" stroke-width="2" stroke-linecap="round"/>
</g>
</svg>
